solid OpenSCAD_Model
  facet normal -1 0 0
    outer loop
      vertex -21.8 -31.8 5.16
      vertex -21.8 31.8 6.8
      vertex -21.8 31.8 5.16
    endloop
  endfacet
  facet normal -1 -0 0
    outer loop
      vertex -21.8 31.8 6.8
      vertex -21.8 -31.8 5.16
      vertex -21.8 -31.8 6.8
    endloop
  endfacet
  facet normal 0 0 1
    outer loop
      vertex 21.8 31.8 6.8
      vertex -9 -25 6.8
      vertex 21.8 -31.8 6.8
    endloop
  endfacet
  facet normal -0 0 1
    outer loop
      vertex -21.8 31.8 6.8
      vertex -9 -25 6.8
      vertex 21.8 31.8 6.8
    endloop
  endfacet
  facet normal 0 0 1
    outer loop
      vertex -21.8 -31.8 6.8
      vertex -21 -25 6.8
      vertex -21.8 31.8 6.8
    endloop
  endfacet
  facet normal 0 0 1
    outer loop
      vertex -9 -25 6.8
      vertex -21.8 31.8 6.8
      vertex -21 -25 6.8
    endloop
  endfacet
  facet normal -0 0 1
    outer loop
      vertex -9 -31 6.8
      vertex 21.8 -31.8 6.8
      vertex -9 -25 6.8
    endloop
  endfacet
  facet normal 0 0 1
    outer loop
      vertex -21.8 -31.8 6.8
      vertex -9 -31 6.8
      vertex -21 -31 6.8
    endloop
  endfacet
  facet normal 0 0 1
    outer loop
      vertex -9 -31 6.8
      vertex -21.8 -31.8 6.8
      vertex 21.8 -31.8 6.8
    endloop
  endfacet
  facet normal 0 0 1
    outer loop
      vertex -21 -25 6.8
      vertex -21.8 -31.8 6.8
      vertex -21 -31 6.8
    endloop
  endfacet
  facet normal 1 -0 0
    outer loop
      vertex 21.8 -31.8 6.8
      vertex 21.8 31.8 5.16
      vertex 21.8 31.8 6.8
    endloop
  endfacet
  facet normal 1 0 0
    outer loop
      vertex 21.8 31.8 5.16
      vertex 21.8 -31.8 6.8
      vertex 21.8 -31.8 5.16
    endloop
  endfacet
  facet normal 0 1 -0
    outer loop
      vertex 21.8 31.8 5.16
      vertex -21.8 31.8 6.8
      vertex 21.8 31.8 6.8
    endloop
  endfacet
  facet normal 0 1 0
    outer loop
      vertex -21.8 31.8 6.8
      vertex 21.8 31.8 5.16
      vertex -21.8 31.8 5.16
    endloop
  endfacet
  facet normal 0 -1 0
    outer loop
      vertex -21.8 -31.8 5.16
      vertex 21.8 -31.8 6.8
      vertex -21.8 -31.8 6.8
    endloop
  endfacet
  facet normal 0 -1 -0
    outer loop
      vertex 21.8 -31.8 6.8
      vertex -21.8 -31.8 5.16
      vertex 21.8 -31.8 5.16
    endloop
  endfacet
  facet normal 1 0 0
    outer loop
      vertex -20.4 30.4 5.4
      vertex -20.4 -20 2
      vertex -20.4 30.4 1.36
    endloop
  endfacet
  facet normal 1 -0 0
    outer loop
      vertex -20.4 -30.4 5.4
      vertex -20.4 -20 2
      vertex -20.4 30.4 5.4
    endloop
  endfacet
  facet normal 1 0 0
    outer loop
      vertex -20.4 -20 2
      vertex -20.4 -30.4 5.4
      vertex -20.4 -30 2
    endloop
  endfacet
  facet normal 1 0 0
    outer loop
      vertex -20.4 -30.4 1.36
      vertex -20.4 -30 2
      vertex -20.4 -30.4 5.4
    endloop
  endfacet
  facet normal 1 0 0
    outer loop
      vertex -20.4 -30 2
      vertex -20.4 -30.4 1.36
      vertex -20.4 -30 1.36
    endloop
  endfacet
  facet normal 1 0 0
    outer loop
      vertex -20.4 30.4 1.36
      vertex -20.4 -20 2
      vertex -20.4 -20 1.36
    endloop
  endfacet
  facet normal 0 0 -1
    outer loop
      vertex -10 -26 5.4
      vertex 20.4 -30.4 5.4
      vertex -10 -30 5.4
    endloop
  endfacet
  facet normal 0 0 -1
    outer loop
      vertex -20.4 -30.4 5.4
      vertex -10 -30 5.4
      vertex 20.4 -30.4 5.4
    endloop
  endfacet
  facet normal -0 0 -1
    outer loop
      vertex -20 -30 5.4
      vertex -20.4 -30.4 5.4
      vertex -20 -26 5.4
    endloop
  endfacet
  facet normal -0 0 -1
    outer loop
      vertex -10 -30 5.4
      vertex -20.4 -30.4 5.4
      vertex -20 -30 5.4
    endloop
  endfacet
  facet normal 0 0 -1
    outer loop
      vertex 20.4 -30.4 5.4
      vertex -10 -26 5.4
      vertex 20.4 30.4 5.4
    endloop
  endfacet
  facet normal 0 0 -1
    outer loop
      vertex -20.4 30.4 5.4
      vertex -10 -26 5.4
      vertex -20 -26 5.4
    endloop
  endfacet
  facet normal 0 0 -1
    outer loop
      vertex -10 -26 5.4
      vertex -20.4 30.4 5.4
      vertex 20.4 30.4 5.4
    endloop
  endfacet
  facet normal 0 0 -1
    outer loop
      vertex -20.4 30.4 5.4
      vertex -20 -26 5.4
      vertex -20.4 -30.4 5.4
    endloop
  endfacet
  facet normal -1 0 0
    outer loop
      vertex 20.4 -30 1.36
      vertex 20.4 -30.4 1.36
      vertex 20.4 -30 2
    endloop
  endfacet
  facet normal -1 0 0
    outer loop
      vertex 20.4 -20 2
      vertex 20.4 30.4 1.36
      vertex 20.4 -20 1.36
    endloop
  endfacet
  facet normal -1 0 0
    outer loop
      vertex 20.4 30.4 1.36
      vertex 20.4 -20 2
      vertex 20.4 30.4 5.4
    endloop
  endfacet
  facet normal -1 0 0
    outer loop
      vertex 20.4 -30.4 5.4
      vertex 20.4 -20 2
      vertex 20.4 -30 2
    endloop
  endfacet
  facet normal -1 0 0
    outer loop
      vertex 20.4 -20 2
      vertex 20.4 -30.4 5.4
      vertex 20.4 30.4 5.4
    endloop
  endfacet
  facet normal -1 0 0
    outer loop
      vertex 20.4 -30.4 5.4
      vertex 20.4 -30 2
      vertex 20.4 -30.4 1.36
    endloop
  endfacet
  facet normal 0 1 0
    outer loop
      vertex 20.4 -30.4 5.4
      vertex -10 -30.4 2
      vertex -20.4 -30.4 5.4
    endloop
  endfacet
  facet normal 0 1 -0
    outer loop
      vertex 20.4 -30.4 1.36
      vertex -10 -30.4 2
      vertex 20.4 -30.4 5.4
    endloop
  endfacet
  facet normal 0 1 0
    outer loop
      vertex -10 -30.4 2
      vertex 20.4 -30.4 1.36
      vertex -10 -30.4 1.36
    endloop
  endfacet
  facet normal 0 1 -0
    outer loop
      vertex -20 -30.4 2
      vertex -20.4 -30.4 5.4
      vertex -10 -30.4 2
    endloop
  endfacet
  facet normal 0 1 0
    outer loop
      vertex -20.4 -30.4 1.36
      vertex -20 -30.4 2
      vertex -20 -30.4 1.36
    endloop
  endfacet
  facet normal 0 1 0
    outer loop
      vertex -20 -30.4 2
      vertex -20.4 -30.4 1.36
      vertex -20.4 -30.4 5.4
    endloop
  endfacet
  facet normal 0 -1 0
    outer loop
      vertex -10 30.4 2
      vertex -20.4 30.4 5.4
      vertex -20 30.4 2
    endloop
  endfacet
  facet normal 0 -1 0
    outer loop
      vertex -20.4 30.4 1.36
      vertex -20 30.4 2
      vertex -20.4 30.4 5.4
    endloop
  endfacet
  facet normal 0 -1 -0
    outer loop
      vertex -20 30.4 2
      vertex -20.4 30.4 1.36
      vertex -20 30.4 1.36
    endloop
  endfacet
  facet normal 0 -1 0
    outer loop
      vertex -20.4 30.4 5.4
      vertex -10 30.4 2
      vertex 20.4 30.4 5.4
    endloop
  endfacet
  facet normal 0 -1 0
    outer loop
      vertex 20.4 30.4 1.36
      vertex -10 30.4 2
      vertex -10 30.4 1.36
    endloop
  endfacet
  facet normal 0 -1 0
    outer loop
      vertex -10 30.4 2
      vertex 20.4 30.4 1.36
      vertex 20.4 30.4 5.4
    endloop
  endfacet
  facet normal 0 -0.792329 -0.610094
    outer loop
      vertex -20 -30.4 2
      vertex -9.22078 -31 2.77922
      vertex -20.7792 -31 2.77922
    endloop
  endfacet
  facet normal 0 -0.792329 -0.610094
    outer loop
      vertex -9.22078 -31 2.77922
      vertex -20 -30.4 2
      vertex -10 -30.4 2
    endloop
  endfacet
  facet normal 0.610094 -0.792329 0
    outer loop
      vertex -20.7792 -31 1.36
      vertex -20 -30.4 2
      vertex -20.7792 -31 2.77922
    endloop
  endfacet
  facet normal 0.610094 -0.792329 0
    outer loop
      vertex -20 -30.4 2
      vertex -20.7792 -31 1.36
      vertex -20 -30.4 1.36
    endloop
  endfacet
  facet normal -0.610094 -0.792329 0
    outer loop
      vertex -9.22078 -31 1.36
      vertex -10 -30.4 2
      vertex -10 -30.4 1.36
    endloop
  endfacet
  facet normal -0.610094 -0.792329 0
    outer loop
      vertex -10 -30.4 2
      vertex -9.22078 -31 1.36
      vertex -9.22078 -31 2.77922
    endloop
  endfacet
  facet normal 0 0.792329 -0.610094
    outer loop
      vertex -10 30.4 2
      vertex -20.7792 31 2.77922
      vertex -9.22078 31 2.77922
    endloop
  endfacet
  facet normal 0 0.792329 -0.610094
    outer loop
      vertex -20.7792 31 2.77922
      vertex -10 30.4 2
      vertex -20 30.4 2
    endloop
  endfacet
  facet normal -0.610094 0.792329 0
    outer loop
      vertex -9.22078 31 1.36
      vertex -10 30.4 2
      vertex -9.22078 31 2.77922
    endloop
  endfacet
  facet normal -0.610094 0.792329 0
    outer loop
      vertex -10 30.4 2
      vertex -9.22078 31 1.36
      vertex -10 30.4 1.36
    endloop
  endfacet
  facet normal 0.610094 0.792329 0
    outer loop
      vertex -20.7792 31 1.36
      vertex -20 30.4 2
      vertex -20 30.4 1.36
    endloop
  endfacet
  facet normal 0.610094 0.792329 0
    outer loop
      vertex -20 30.4 2
      vertex -20.7792 31 1.36
      vertex -20.7792 31 2.77922
    endloop
  endfacet
  facet normal -0.792329 0.610094 0
    outer loop
      vertex -21 -30.7792 1.36
      vertex -20.4 -30 2
      vertex -20.4 -30 1.36
    endloop
  endfacet
  facet normal -0.792329 0.610094 0
    outer loop
      vertex -20.4 -30 2
      vertex -21 -30.7792 1.36
      vertex -21 -30.7792 2.77922
    endloop
  endfacet
  facet normal -0.792329 -0.610094 -0
    outer loop
      vertex -20.4 -20 2
      vertex -21 -19.2208 1.36
      vertex -20.4 -20 1.36
    endloop
  endfacet
  facet normal -0.792329 -0.610094 0
    outer loop
      vertex -21 -19.2208 1.36
      vertex -20.4 -20 2
      vertex -21 -19.2208 2.77922
    endloop
  endfacet
  facet normal -0.792329 0 -0.610094
    outer loop
      vertex -20.4 -30 2
      vertex -21 -19.2208 2.77922
      vertex -20.4 -20 2
    endloop
  endfacet
  facet normal -0.792329 -0 -0.610094
    outer loop
      vertex -21 -19.2208 2.77922
      vertex -20.4 -30 2
      vertex -21 -30.7792 2.77922
    endloop
  endfacet
  facet normal 0.792329 0 -0.610094
    outer loop
      vertex 21 -19.2208 2.77922
      vertex 20.4 -30 2
      vertex 20.4 -20 2
    endloop
  endfacet
  facet normal 0.792329 0 -0.610094
    outer loop
      vertex 20.4 -30 2
      vertex 21 -19.2208 2.77922
      vertex 21 -30.7792 2.77922
    endloop
  endfacet
  facet normal 0.792329 0.610094 -0
    outer loop
      vertex 21 -30.7792 1.36
      vertex 20.4 -30 2
      vertex 21 -30.7792 2.77922
    endloop
  endfacet
  facet normal 0.792329 0.610094 0
    outer loop
      vertex 20.4 -30 2
      vertex 21 -30.7792 1.36
      vertex 20.4 -30 1.36
    endloop
  endfacet
  facet normal 0.792329 -0.610094 0
    outer loop
      vertex 20.4 -20 2
      vertex 21 -19.2208 1.36
      vertex 21 -19.2208 2.77922
    endloop
  endfacet
  facet normal 0.792329 -0.610094 0
    outer loop
      vertex 21 -19.2208 1.36
      vertex 20.4 -20 2
      vertex 20.4 -20 1.36
    endloop
  endfacet
  facet normal 0 1 -0
    outer loop
      vertex -9 -31 6.17
      vertex -21 -31 6.8
      vertex -9 -31 6.8
    endloop
  endfacet
  facet normal 0 1 0
    outer loop
      vertex -21 -31 6.8
      vertex -9 -31 6.17
      vertex -21 -31 6.17
    endloop
  endfacet
  facet normal 1 -0 0
    outer loop
      vertex -21 -31 6.8
      vertex -21 -25 6.17
      vertex -21 -25 6.8
    endloop
  endfacet
  facet normal 1 0 0
    outer loop
      vertex -21 -25 6.17
      vertex -21 -31 6.8
      vertex -21 -31 6.17
    endloop
  endfacet
  facet normal -0 0.610093 0.79233
    outer loop
      vertex -20 -30 5.4
      vertex -9 -31 6.17
      vertex -10 -30 5.4
    endloop
  endfacet
  facet normal 0 0.610093 0.79233
    outer loop
      vertex -9 -31 6.17
      vertex -20 -30 5.4
      vertex -21 -31 6.17
    endloop
  endfacet
  facet normal -0.610093 0 0.79233
    outer loop
      vertex -10 -26 5.4
      vertex -9 -31 6.17
      vertex -9 -25 6.17
    endloop
  endfacet
  facet normal -0.610093 0 0.79233
    outer loop
      vertex -9 -31 6.17
      vertex -10 -26 5.4
      vertex -10 -30 5.4
    endloop
  endfacet
  facet normal 0 -1 0
    outer loop
      vertex -21 -25 6.17
      vertex -9 -25 6.8
      vertex -21 -25 6.8
    endloop
  endfacet
  facet normal 0 -1 -0
    outer loop
      vertex -9 -25 6.8
      vertex -21 -25 6.17
      vertex -9 -25 6.17
    endloop
  endfacet
  facet normal -1 0 0
    outer loop
      vertex -9 -31 6.17
      vertex -9 -25 6.8
      vertex -9 -25 6.17
    endloop
  endfacet
  facet normal -1 -0 0
    outer loop
      vertex -9 -25 6.8
      vertex -9 -31 6.17
      vertex -9 -31 6.8
    endloop
  endfacet
  facet normal 0.610093 0 0.79233
    outer loop
      vertex -21 -25 6.17
      vertex -20 -30 5.4
      vertex -20 -26 5.4
    endloop
  endfacet
  facet normal 0.610093 0 0.79233
    outer loop
      vertex -20 -30 5.4
      vertex -21 -25 6.17
      vertex -21 -31 6.17
    endloop
  endfacet
  facet normal 0 -0.610093 0.79233
    outer loop
      vertex -9 -25 6.17
      vertex -20 -26 5.4
      vertex -10 -26 5.4
    endloop
  endfacet
  facet normal 0 -0.610093 0.79233
    outer loop
      vertex -20 -26 5.4
      vertex -9 -25 6.17
      vertex -21 -25 6.17
    endloop
  endfacet
  facet normal 0 0 -1
    outer loop
      vertex 21.8 -31.8 5.16
      vertex 21 -31 5.16
      vertex 21.8 31.8 5.16
    endloop
  endfacet
  facet normal 0 0 -1
    outer loop
      vertex 21.8 -31.8 5.16
      vertex -21 -31 5.16
      vertex 21 -31 5.16
    endloop
  endfacet
  facet normal -0 0 -1
    outer loop
      vertex -21 -31 5.16
      vertex -21.8 -31.8 5.16
      vertex -21 31 5.16
    endloop
  endfacet
  facet normal 0 0 -1
    outer loop
      vertex -21.8 -31.8 5.16
      vertex -21 -31 5.16
      vertex 21.8 -31.8 5.16
    endloop
  endfacet
  facet normal 0 0 -1
    outer loop
      vertex 21 31 5.16
      vertex 21.8 31.8 5.16
      vertex 21 -31 5.16
    endloop
  endfacet
  facet normal 0 0 -1
    outer loop
      vertex -21 31 5.16
      vertex 21.8 31.8 5.16
      vertex 21 31 5.16
    endloop
  endfacet
  facet normal 0 0 -1
    outer loop
      vertex -21 31 5.16
      vertex -21.8 31.8 5.16
      vertex 21.8 31.8 5.16
    endloop
  endfacet
  facet normal 0 0 -1
    outer loop
      vertex -21.8 31.8 5.16
      vertex -21 31 5.16
      vertex -21.8 -31.8 5.16
    endloop
  endfacet
  facet normal -1 0 0
    outer loop
      vertex -21 -30.7792 1.36
      vertex -21 -31 1.36
      vertex -21 -30.7792 2.77922
    endloop
  endfacet
  facet normal -1 0 0
    outer loop
      vertex -21 -19.2208 2.77922
      vertex -21 31 1.36
      vertex -21 -19.2208 1.36
    endloop
  endfacet
  facet normal -1 0 0
    outer loop
      vertex -21 31 1.36
      vertex -21 -19.2208 2.77922
      vertex -21 31 5.16
    endloop
  endfacet
  facet normal -1 0 0
    outer loop
      vertex -21 -31 5.16
      vertex -21 -19.2208 2.77922
      vertex -21 -30.7792 2.77922
    endloop
  endfacet
  facet normal -1 0 0
    outer loop
      vertex -21 -19.2208 2.77922
      vertex -21 -31 5.16
      vertex -21 31 5.16
    endloop
  endfacet
  facet normal -1 0 0
    outer loop
      vertex -21 -31 5.16
      vertex -21 -30.7792 2.77922
      vertex -21 -31 1.36
    endloop
  endfacet
  facet normal 1 0 0
    outer loop
      vertex 21 31 5.16
      vertex 21 -19.2208 2.77922
      vertex 21 31 1.36
    endloop
  endfacet
  facet normal 1 -0 0
    outer loop
      vertex 21 -31 5.16
      vertex 21 -19.2208 2.77922
      vertex 21 31 5.16
    endloop
  endfacet
  facet normal 1 0 0
    outer loop
      vertex 21 -19.2208 2.77922
      vertex 21 -31 5.16
      vertex 21 -30.7792 2.77922
    endloop
  endfacet
  facet normal 1 0 0
    outer loop
      vertex 21 -31 1.36
      vertex 21 -30.7792 2.77922
      vertex 21 -31 5.16
    endloop
  endfacet
  facet normal 1 0 0
    outer loop
      vertex 21 -30.7792 2.77922
      vertex 21 -31 1.36
      vertex 21 -30.7792 1.36
    endloop
  endfacet
  facet normal 1 0 0
    outer loop
      vertex 21 31 1.36
      vertex 21 -19.2208 2.77922
      vertex 21 -19.2208 1.36
    endloop
  endfacet
  facet normal 0 -1 0
    outer loop
      vertex -9.22078 -31 2.77922
      vertex -21 -31 5.16
      vertex -20.7792 -31 2.77922
    endloop
  endfacet
  facet normal 0 -1 0
    outer loop
      vertex -21 -31 1.36
      vertex -20.7792 -31 2.77922
      vertex -21 -31 5.16
    endloop
  endfacet
  facet normal 0 -1 -0
    outer loop
      vertex -20.7792 -31 2.77922
      vertex -21 -31 1.36
      vertex -20.7792 -31 1.36
    endloop
  endfacet
  facet normal 0 -1 0
    outer loop
      vertex -21 -31 5.16
      vertex -9.22078 -31 2.77922
      vertex 21 -31 5.16
    endloop
  endfacet
  facet normal 0 -1 0
    outer loop
      vertex 21 -31 1.36
      vertex -9.22078 -31 2.77922
      vertex -9.22078 -31 1.36
    endloop
  endfacet
  facet normal 0 -1 0
    outer loop
      vertex -9.22078 -31 2.77922
      vertex 21 -31 1.36
      vertex 21 -31 5.16
    endloop
  endfacet
  facet normal 0 1 0
    outer loop
      vertex 21 31 5.16
      vertex -9.22078 31 2.77922
      vertex -21 31 5.16
    endloop
  endfacet
  facet normal 0 1 -0
    outer loop
      vertex 21 31 1.36
      vertex -9.22078 31 2.77922
      vertex 21 31 5.16
    endloop
  endfacet
  facet normal 0 1 0
    outer loop
      vertex -9.22078 31 2.77922
      vertex 21 31 1.36
      vertex -9.22078 31 1.36
    endloop
  endfacet
  facet normal 0 1 -0
    outer loop
      vertex -20.7792 31 2.77922
      vertex -21 31 5.16
      vertex -9.22078 31 2.77922
    endloop
  endfacet
  facet normal 0 1 0
    outer loop
      vertex -21 31 1.36
      vertex -20.7792 31 2.77922
      vertex -20.7792 31 1.36
    endloop
  endfacet
  facet normal 0 1 0
    outer loop
      vertex -20.7792 31 2.77922
      vertex -21 31 1.36
      vertex -21 31 5.16
    endloop
  endfacet
  facet normal 0 0 -1
    outer loop
      vertex -20.7792 -31 1.36
      vertex -20.4 -30.4 1.36
      vertex -20 -30.4 1.36
    endloop
  endfacet
  facet normal 0 0 -1
    outer loop
      vertex -21 -30.7792 1.36
      vertex -20.4 -30.4 1.36
      vertex -20.7792 -31 1.36
    endloop
  endfacet
  facet normal 0 0 -1
    outer loop
      vertex -21 -30.7792 1.36
      vertex -20.7792 -31 1.36
      vertex -21 -31 1.36
    endloop
  endfacet
  facet normal -0 0 -1
    outer loop
      vertex -20.4 -30.4 1.36
      vertex -21 -30.7792 1.36
      vertex -20.4 -30 1.36
    endloop
  endfacet
  facet normal 0 0 -1
    outer loop
      vertex -21 -19.2208 1.36
      vertex -20.4 30.4 1.36
      vertex -20.4 -20 1.36
    endloop
  endfacet
  facet normal 0 0 -1
    outer loop
      vertex -21 31 1.36
      vertex -20.4 30.4 1.36
      vertex -21 -19.2208 1.36
    endloop
  endfacet
  facet normal 0 0 -1
    outer loop
      vertex -20.4 30.4 1.36
      vertex -21 31 1.36
      vertex -20.7792 31 1.36
    endloop
  endfacet
  facet normal 0 0 -1
    outer loop
      vertex -20 30.4 1.36
      vertex -20.4 30.4 1.36
      vertex -20.7792 31 1.36
    endloop
  endfacet
  facet normal 0 0 -1
    outer loop
      vertex 21 -31 1.36
      vertex 20.4 -30.4 1.36
      vertex 21 -30.7792 1.36
    endloop
  endfacet
  facet normal 0 0 -1
    outer loop
      vertex -9.22078 -31 1.36
      vertex 20.4 -30.4 1.36
      vertex 21 -31 1.36
    endloop
  endfacet
  facet normal -0 0 -1
    outer loop
      vertex 20.4 -30.4 1.36
      vertex -9.22078 -31 1.36
      vertex -10 -30.4 1.36
    endloop
  endfacet
  facet normal 0 0 -1
    outer loop
      vertex 21 -30.7792 1.36
      vertex 20.4 -30.4 1.36
      vertex 20.4 -30 1.36
    endloop
  endfacet
  facet normal 0 0 -1
    outer loop
      vertex 20.4 30.4 1.36
      vertex 21 -19.2208 1.36
      vertex 20.4 -20 1.36
    endloop
  endfacet
  facet normal 0 0 -1
    outer loop
      vertex 21 -19.2208 1.36
      vertex 20.4 30.4 1.36
      vertex 21 31 1.36
    endloop
  endfacet
  facet normal 0 0 -1
    outer loop
      vertex 20.4 30.4 1.36
      vertex -9.22078 31 1.36
      vertex 21 31 1.36
    endloop
  endfacet
  facet normal 0 -0 -1
    outer loop
      vertex -9.22078 31 1.36
      vertex 20.4 30.4 1.36
      vertex -10 30.4 1.36
    endloop
  endfacet
endsolid OpenSCAD_Model
